<?xml version="1.0" encoding="UTF-8"?><svg xmlns="http://www.w3.org/2000/svg" xmlns:xlink="http://www.w3.org/1999/xlink" height="401.2" preserveAspectRatio="xMidYMid meet" version="1.0" viewBox="0.0 -0.0 444.7 401.2" width="444.7" zoomAndPan="magnify"><g id="change1_3"><path d="M444.69,274.478v-8.447h-48.401c-0.639-0.899-1.291-1.788-1.953-2.669 c-0.119-0.158-0.241-0.313-0.361-0.471c-0.537-0.706-1.079-1.408-1.631-2.102c-0.171-0.215-0.344-0.427-0.516-0.641 c-0.521-0.647-1.048-1.29-1.583-1.926c-0.168-0.2-0.337-0.399-0.506-0.598c-0.575-0.676-1.158-1.346-1.747-2.01 c-0.123-0.139-0.246-0.278-0.369-0.416c-2.996-3.341-6.173-6.515-9.516-9.508c0,0,0,0,0,0c0.026-0.049,0.047-0.1,0.056-0.155 c0.011-0.057,0.012-0.116,0-0.176c-0.272-1.356-0.573-2.706-0.888-4.053c-0.103-0.441-0.21-0.88-0.318-1.32 c-0.226-0.926-0.463-1.851-0.709-2.773c-0.131-0.491-0.257-0.983-0.393-1.472c-0.327-1.174-0.669-2.345-1.028-3.511 c-0.225-0.734-0.466-1.463-0.703-2.194c-0.163-0.499-0.325-0.998-0.494-1.496c-0.282-0.835-0.57-1.667-0.868-2.498 c-0.085-0.237-0.175-0.474-0.262-0.711c-0.675-1.85-1.388-3.688-2.143-5.513c0.013,0.032,0.026,0.064,0.039,0.096h20.874 c0.276,0,0.5-0.224,0.5-0.5V35.17c0-0.276-0.224-0.5-0.5-0.5h-83.647l-0.019,0.052l12.714-34.047 c0.072-0.194,0.018-0.413-0.138-0.55c-0.156-0.138-0.38-0.164-0.563-0.068c-12.975,6.813-24.948,9.396-35.587,7.672 c-3.983-0.645-7.916-1.924-11.72-3.161c-4.239-1.379-8.624-2.805-13.133-3.377c-3.856-0.489-7.796-0.354-11.829-0.16 c-7.827,0.38-16.118,0.954-23.882,3.388c-13.345,4.184-25.091,14.236-31.422,26.888c-0.275,0.549-0.526,1.085-0.767,1.617 c-0.033,0.074-0.065,0.147-0.098,0.221c-0.23,0.516-0.445,1.024-0.644,1.525c0,0,0,0,0,0c0,0,0,0,0,0H87.605 c-0.276,0-0.5,0.224-0.5,0.5v184.245c0,0.276,0.224,0.5,0.5,0.5h50.715c0.004-0.01,0.008-0.02,0.012-0.03 c-0.677,1.824-1.332,3.654-1.977,5.482c-0.097,0.274-0.192,0.544-0.288,0.817c-0.62,1.766-1.232,3.528-1.833,5.267 c-0.895,2.591-1.79,5.181-2.71,7.761c-0.615,1.723-1.243,3.443-1.882,5.16c-0.162,0.436-0.331,0.87-0.495,1.306 c-0.484,1.286-0.968,2.572-1.464,3.854c-0.165,0.428-0.337,0.854-0.503,1.281c-0.504,1.292-1.009,2.584-1.524,3.872 c-0.15,0.375-0.305,0.749-0.456,1.124c-0.541,1.343-1.084,2.685-1.636,4.024c-0.125,0.303-0.253,0.604-0.378,0.906 c-0.587,1.415-1.177,2.828-1.775,4.239c-0.09,0.213-0.183,0.425-0.273,0.637c-0.64,1.503-1.283,3.004-1.934,4.501 c-0.053,0.121-0.106,0.242-0.159,0.363c-0.692,1.588-1.388,3.173-2.091,4.755c-0.023,0.053-0.047,0.105-0.07,0.157 c-0.733,1.649-1.472,3.295-2.216,4.938c0,0.001-0.001,0.001-0.001,0.002c-0.664-1.102-1.433-2.142-2.291-3.112 c-0.018-0.02-0.035-0.04-0.053-0.06c-0.861-0.967-1.809-1.865-2.834-2.682h7.798c1.243-2.807,2.469-5.622,3.673-8.447h-12.624 c0.047-0.254,0.093-0.508,0.141-0.765c0.272-1.453,0.554-2.956,0.609-4.422c0.104-2.73-0.588-5.37-1.257-7.924l-2.187-8.343 c-0.115-0.44-0.273-1.043-0.748-1.451c-0.488-0.42-1.127-0.477-1.593-0.518l-13.305-1.185c-3.751-1.675-9.392-2.463-13.071,0.783 c-0.79,0.697-1.436,1.538-2.06,2.352c-0.865,1.127-1.683,2.191-2.826,2.852c-0.323,0.187-0.667,0.337-1.011,0.488 c-0.554,0.244-1.127,0.497-1.637,0.891c-1.196,0.924-1.734,2.339-2.224,3.829c-1.197,3.646-2.271,7.383-3.194,11.105 c-0.071,0.285-0.178,0.718-0.009,1.142c0.144,0.363,0.459,0.647,0.935,0.845c1.482,0.614,3.349,0.167,4.755-1.142 c0.269-0.25,0.506-0.524,0.73-0.808c0.075-0.094,0.145-0.189,0.215-0.286c0.142-0.196,0.276-0.396,0.403-0.6 c0.22-0.352,0.424-0.709,0.61-1.07c0,0,0,0,0,0c0.001,0.356,0.019,0.709,0.052,1.064c0.001,0.014,0.003,0.028,0.005,0.042 c0.104,1.066,0.35,2.114,0.728,3.119v0H0v8.447h75.253l-0.138,1.127c-0.182,0.137-0.367,0.28-0.557,0.43 c-0.03,0.024-0.062,0.051-0.092,0.075c-0.16,0.128-0.321,0.259-0.484,0.397c-0.063,0.054-0.126,0.112-0.189,0.167 c-0.133,0.116-0.265,0.23-0.397,0.352c-0.082,0.076-0.162,0.158-0.243,0.236c-0.113,0.109-0.226,0.216-0.337,0.33 c-0.093,0.096-0.182,0.199-0.273,0.299c-0.096,0.105-0.193,0.206-0.286,0.316c-0.101,0.119-0.195,0.245-0.292,0.369 c-0.077,0.098-0.158,0.193-0.232,0.294c-0.109,0.15-0.209,0.31-0.311,0.467c-0.054,0.083-0.113,0.162-0.164,0.247 c-0.149,0.247-0.287,0.502-0.412,0.766c-0.697,1.469-0.941,3.059-1.178,4.597l-2.651,17.252c0,0,0,0,0,0.001 c-0.1,0.222-0.192,0.448-0.278,0.677c-0.024,0.064-0.048,0.129-0.071,0.194c-0.069,0.194-0.134,0.39-0.192,0.589 c-0.039,0.134-0.072,0.27-0.106,0.406c-0.037,0.149-0.077,0.297-0.107,0.449c-0.062,0.304-0.113,0.612-0.146,0.927 c-0.273,3.671-0.726,7.475-1.164,11.152c-0.742,6.236-1.51,12.685-1.513,19.133c-0.005,12.082,3.006,22.2,8.709,29.262 c4.605,5.702,12.34,10.179,20.305,10.179c2.575,0,5.174-0.468,7.699-1.514c3.677-1.523,6.771-4.083,9.88-6.793 c1.343-1.171,2.675-2.352,3.998-3.544c0.562-0.507,1.115-1.023,1.674-1.533c0.752-0.688,1.509-1.371,2.254-2.066 c0.766-0.713,1.521-1.437,2.28-2.158c0.526-0.5,1.057-0.994,1.58-1.497c0.881-0.848,1.751-1.706,2.622-2.563 c0.39-0.384,0.785-0.763,1.173-1.149c0.964-0.958,1.916-1.927,2.867-2.896c0.286-0.291,0.576-0.578,0.861-0.871 c1.026-1.054,2.041-2.118,3.053-3.185c0.202-0.213,0.408-0.423,0.609-0.637c1.064-1.129,2.117-2.268,3.165-3.412 c0.144-0.157,0.29-0.312,0.434-0.469c1.104-1.21,2.196-2.429,3.282-3.655c0.082-0.092,0.165-0.183,0.247-0.276 c1.125-1.274,2.239-2.557,3.344-3.849c0.04-0.047,0.082-0.094,0.122-0.141c1.133-1.326,2.255-2.661,3.367-4.005 c0.012-0.014,0.023-0.028,0.035-0.042c6.754-8.165,13.109-16.663,19.045-25.461c0.002-0.002,0.003-0.005,0.005-0.007 c0,0,0,0,0,0.001c0.064,0.158,0.138,0.347,0.221,0.569c0,0.001,0,0.002,0.001,0.003c1.424,5.192,2.902,10.369,4.435,15.522 c0.002,0.006,0.004,0.013,0.006,0.019c0.708,2.382,1.43,4.758,2.16,7.129c0.063,0.205,0.124,0.411,0.187,0.616 c0.791,2.558,1.594,5.11,2.41,7.652c-0.005,0.45-0.017,0.898-0.017,1.349v64.321c0,0.276,0.224,0.5,0.5,0.5h242.248 c0.276,0,0.5-0.224,0.5-0.5v-64.321c0-1.269-0.026-2.532-0.065-3.792c-0.011-0.366-0.027-0.73-0.042-1.095 c-0.038-0.952-0.087-1.901-0.146-2.847c-0.022-0.342-0.041-0.685-0.065-1.026c-0.09-1.256-0.194-2.509-0.322-3.754 c-0.005-0.052-0.012-0.103-0.018-0.154c-0.125-1.197-0.271-2.388-0.43-3.575c-0.042-0.316-0.088-0.63-0.133-0.945 c-0.143-1.006-0.298-2.007-0.465-3.005c-0.042-0.249-0.081-0.499-0.124-0.748c-0.22-1.262-0.456-2.518-0.715-3.766 c-0.003-0.014-0.006-0.027-0.009-0.041c-0.252-1.216-0.528-2.424-0.816-3.626c-0.055-0.227-0.111-0.454-0.167-0.681 c-0.273-1.11-0.56-2.214-0.864-3.312c-0.03-0.109-0.059-0.219-0.089-0.329c-0.699-2.5-1.478-4.966-2.33-7.399 c-0.044-0.126-0.089-0.252-0.134-0.378c-1.307-3.693-2.787-7.305-4.432-10.825c-0.019-0.041-0.038-0.082-0.057-0.123 c-1.678-3.582-3.525-7.068-5.532-10.451c0.009,0.015,0.018,0.029,0.027,0.044H444.69z M268.846,117.575 c-0.061,0.958-0.095,1.916-0.102,2.875C268.751,119.492,268.784,118.533,268.846,117.575L268.846,117.575z M222.011,121.093 L222.011,121.093c0.035,0.095,0.065,0.192,0.099,0.288c-0.008-0.021-0.014-0.042-0.022-0.063 C222.062,121.242,222.039,121.167,222.011,121.093z M222.542,122.654c-0.019-0.062-0.035-0.124-0.055-0.185 C222.506,122.53,222.522,122.592,222.542,122.654z M95.944,242.958c-0.542-0.012-1.079-0.036-1.611-0.081 c-0.011-0.001-0.023-0.002-0.034-0.003c-0.532-0.045-1.059-0.11-1.577-0.203c0,0,0,0,0,0L95.944,242.958 C95.944,242.958,95.944,242.958,95.944,242.958z M76.241,274.632c0.004,0.052,0.007,0.103,0.011,0.155 c-0.011,0.008-0.022,0.016-0.033,0.023L76.241,274.632z M109.487,274.478h-0.031c-0.215-0.171-0.416-0.356-0.637-0.52 c0.187,0.139,0.368,0.284,0.551,0.428C109.408,274.417,109.448,274.447,109.487,274.478z M64.885,264.323 C64.885,264.323,64.885,264.323,64.885,264.323c0.06,0.135,0.135,0.258,0.223,0.371c-0.045-0.027-0.083-0.055-0.117-0.083 c-0.042-0.038-0.084-0.076-0.099-0.114C64.874,264.453,64.881,264.386,64.885,264.323z M68.134,264.446 c0.403-0.299,0.79-0.619,1.155-0.962c-0.107,0.117-0.201,0.244-0.317,0.352C68.729,264.063,68.443,264.27,68.134,264.446z" fill="#f57923"/></g><g><g fill="#f57923" id="change1_2"><path d="M108.205,266.772c-0.024,0.142-0.048,0.284-0.07,0.426c-0.031,0.198-0.059,0.395-0.086,0.591 c-0.023,0.167-0.043,0.333-0.062,0.498c-0.02,0.178-0.037,0.355-0.052,0.53c-0.015,0.175-0.024,0.349-0.032,0.522 c-0.008,0.165-0.014,0.329-0.016,0.492c-0.001,0.181,0.006,0.359,0.014,0.537c0.007,0.152,0.012,0.304,0.025,0.454 c0.017,0.188,0.048,0.372,0.078,0.556c0.022,0.136,0.039,0.274,0.068,0.408c0.045,0.205,0.109,0.406,0.173,0.607 c0.035,0.109,0.06,0.22,0.1,0.327c0.115,0.306,0.252,0.607,0.42,0.902c0.031,0.054,0.048,0.111,0.056,0.168 c0.009,0.056,0.005,0.111-0.004,0.165c0,0,0,0,0,0c0,0,0.001,0,0.001,0.001c0.228,0.169,0.449,0.344,0.67,0.521h7.798 c1.243-2.807,2.469-5.622,3.673-8.447h-12.624c0,0.001,0,0.001,0,0.002C108.288,266.281,108.246,266.526,108.205,266.772z" fill="inherit"/><path d="M444.69,274.478v-8.447h-48.401c-5.288-7.444-11.396-14.265-18.184-20.341 c0.053-0.099,0.08-0.213,0.056-0.332c-1.769-8.805-4.437-17.444-7.916-25.811c0.049,0.123,0.099,0.245,0.15,0.367h20.874 c0.276,0,0.5-0.224,0.5-0.5V35.17c0-0.276-0.224-0.5-0.5-0.5h-83.647l-0.187,0.5l0,0l12.881-34.495 c0.072-0.194,0.018-0.413-0.138-0.55c-0.156-0.138-0.38-0.164-0.563-0.068c-12.975,6.813-24.948,9.396-35.587,7.672 c-3.983-0.645-7.916-1.924-11.72-3.161c-4.239-1.379-8.624-2.805-13.133-3.377c-3.856-0.489-7.796-0.354-11.829-0.16 c-7.827,0.38-16.118,0.954-23.882,3.388c-13.345,4.184-25.091,14.236-31.422,26.888c-0.581,1.16-1.078,2.276-1.508,3.363 c0,0,0,0,0,0H87.605c-0.276,0-0.5,0.224-0.5,0.5v184.245c0,0.276,0.224,0.5,0.5,0.5h50.715c0.024-0.064,0.048-0.127,0.072-0.191 c-1.454,3.911-2.825,7.869-4.158,11.727c-0.895,2.591-1.79,5.181-2.71,7.761c-4.967,13.912-10.745,27.623-16.859,41.12 c-1.342-2.227-3.106-4.203-5.178-5.854h-0.031c-0.215-0.171-0.417-0.356-0.638-0.521c0,0,0,0-0.001-0.001c0,0,0,0,0,0 c0.01-0.054,0.012-0.11,0.004-0.165c-0.009-0.057-0.025-0.115-0.056-0.168c-0.168-0.294-0.304-0.596-0.42-0.902 c-0.04-0.108-0.065-0.219-0.1-0.327c-0.064-0.201-0.128-0.402-0.173-0.607c-0.029-0.134-0.046-0.272-0.068-0.408 c-0.03-0.184-0.061-0.369-0.078-0.556c-0.014-0.15-0.019-0.302-0.025-0.454c-0.008-0.178-0.015-0.356-0.014-0.537 c0.001-0.163,0.008-0.327,0.016-0.492c0.008-0.173,0.017-0.347,0.032-0.522c0.015-0.176,0.032-0.353,0.052-0.53 c0.019-0.165,0.039-0.331,0.062-0.498c0.027-0.196,0.055-0.393,0.086-0.591c0.022-0.141,0.046-0.284,0.07-0.426 c0.042-0.245,0.083-0.491,0.129-0.739c0-0.001,0-0.001,0-0.002l0,0c0.047-0.254,0.093-0.508,0.141-0.765 c0.272-1.453,0.554-2.956,0.609-4.422c0.104-2.73-0.588-5.37-1.257-7.924l-2.187-8.343c-0.115-0.44-0.273-1.043-0.748-1.451 c-0.488-0.42-1.127-0.477-1.593-0.518l-13.305-1.185c-3.751-1.675-9.392-2.463-13.071,0.783c-0.79,0.697-1.436,1.538-2.06,2.352 c-0.865,1.127-1.683,2.191-2.826,2.852c-0.323,0.187-0.667,0.337-1.011,0.488c-0.554,0.244-1.127,0.497-1.637,0.891 c-1.196,0.924-1.734,2.339-2.224,3.829c-1.197,3.646-2.271,7.383-3.194,11.105c-0.071,0.285-0.178,0.718-0.009,1.142 c0.144,0.363,0.459,0.647,0.935,0.845c1.482,0.614,3.349,0.167,4.755-1.142c0.848-0.788,1.45-1.777,1.959-2.763 c0.005,1.439,0.276,2.872,0.785,4.225H0v8.447h75.253l-0.138,1.127c-1.475,1.111-3.271,2.647-4.268,4.746 c-0.697,1.469-0.941,3.059-1.178,4.597l-2.651,17.252c-0.456,1.01-0.778,2.087-0.9,3.243c-0.273,3.671-0.726,7.475-1.164,11.152 c-0.742,6.236-1.51,12.685-1.513,19.133c-0.005,12.082,3.006,22.2,8.709,29.262c4.605,5.702,12.34,10.179,20.305,10.179 c2.575,0,5.174-0.468,7.699-1.514c3.677-1.523,6.771-4.083,9.88-6.793c21.344-18.61,40.181-39.944,56.015-63.416 c0.065,0.158,0.138,0.348,0.221,0.57c2.852,10.398,5.924,20.737,9.198,30.941c-0.005,0.45-0.017,0.898-0.017,1.349v64.321 c0,0.276,0.224,0.5,0.5,0.5h242.248c0.276,0,0.5-0.224,0.5-0.5v-64.321c0-22.578-6.191-43.733-16.954-61.872 c0.009,0.015,0.019,0.029,0.027,0.044H444.69z M292.51,65.894c0.027,0.041,0.054,0.082,0.081,0.124 C292.564,65.976,292.537,65.935,292.51,65.894z M292.877,66.502c0.05,0.09,0.094,0.181,0.14,0.272 C292.972,66.683,292.926,66.593,292.877,66.502z M293.2,67.151c0.102,0.228,0.194,0.456,0.27,0.68 C293.394,67.608,293.3,67.379,293.2,67.151z M268.846,117.571c-0.245,3.836-0.052,7.692,0.575,11.481 C268.794,125.263,268.601,121.407,268.846,117.571z M224.097,132.46c-0.035-3.896-0.736-7.716-2.086-11.369 C223.36,124.744,224.062,128.564,224.097,132.46z M224.097,132.462c-0.008,0.002-0.016,0.004-0.024,0.006 C224.081,132.466,224.089,132.464,224.097,132.462L224.097,132.462z M217.05,134.342c1.166-0.344,2.338-0.672,3.513-0.986 C219.388,133.67,218.217,133.998,217.05,134.342z M222.01,121.089L222.01,121.089c-0.121,0.045-0.245,0.082-0.365,0.128 C221.766,121.171,221.889,121.134,222.01,121.089z M216.852,114.004c0.363,0.638,0.736,1.27,1.106,1.904 C217.588,115.274,217.215,114.642,216.852,114.004z M218.896,117.512c0.703,1.175,1.418,2.344,2.148,3.504 C220.313,119.856,219.598,118.688,218.896,117.512z M206.557,92.78C206.557,92.78,206.557,92.78,206.557,92.78 C206.557,92.78,206.557,92.78,206.557,92.78L206.557,92.78z M205.698,93.42c-0.001,0.001-0.001,0.003-0.002,0.005 C205.697,93.424,205.697,93.422,205.698,93.42z M193.114,69.846c0.014-0.008,0.028-0.016,0.042-0.024 C193.142,69.83,193.128,69.837,193.114,69.846z M191.913,63.712c0.032,0.114,0.064,0.228,0.097,0.341 C191.977,63.94,191.946,63.826,191.913,63.712z M208.066,96.366c0.023,0.054,0.047,0.107,0.07,0.161 C208.113,96.474,208.089,96.42,208.066,96.366z M209.648,99.916c0.059,0.129,0.119,0.257,0.178,0.386 C209.766,100.173,209.707,100.045,209.648,99.916z M211.313,103.451c0.105,0.218,0.213,0.434,0.319,0.651 C211.526,103.885,211.418,103.669,211.313,103.451z M213.065,106.973c0.166,0.325,0.336,0.647,0.504,0.971 C213.401,107.62,213.231,107.298,213.065,106.973z M214.91,110.491c0.245,0.453,0.496,0.903,0.745,1.354 C215.406,111.394,215.154,110.945,214.91,110.491z M272.489,129.357c1.052,0.114,2.101,0.24,3.148,0.381 C274.59,129.596,273.54,129.473,272.489,129.357z M273.821,110.474c0.123-0.385,0.248-0.77,0.37-1.156 C274.07,109.704,273.945,110.089,273.821,110.474z M193.741,69.521L193.741,69.521c-0.01-0.03-0.019-0.06-0.03-0.09l0,0 C193.721,69.46,193.73,69.491,193.741,69.521z M191.003,60.341c-0.107-0.422-0.2-0.848-0.301-1.271 C190.802,59.494,190.897,59.919,191.003,60.341z M190.105,56.474c-0.287-1.355-0.55-2.715-0.781-4.078 C189.554,53.759,189.82,55.118,190.105,56.474z M192.259,151.078c-0.074,0.04-0.148,0.082-0.222,0.122 C192.112,151.16,192.185,151.117,192.259,151.078z M195.195,149.586c-0.04,0.019-0.079,0.04-0.118,0.059 C195.116,149.626,195.155,149.606,195.195,149.586z M198.162,148.22c-0.012,0.005-0.024,0.011-0.036,0.016 C198.138,148.231,198.15,148.225,198.162,148.22z M213.397,143.333L213.397,143.333 C213.397,143.333,213.397,143.333,213.397,143.333C213.397,143.333,213.397,143.333,213.397,143.333z M277.531,131.327 c-0.068-0.068-0.138-0.133-0.207-0.2C277.393,131.194,277.463,131.259,277.531,131.327z M276.449,101.904 c0.056-0.191,0.11-0.383,0.166-0.575C276.56,101.521,276.505,101.713,276.449,101.904z M280.879,85.297L280.879,85.297 C280.879,85.298,280.879,85.298,280.879,85.297C280.879,85.298,280.879,85.298,280.879,85.297z M283.849,85.649 c-0.475,0-0.963-0.032-1.461-0.092C282.885,85.613,283.374,85.649,283.849,85.649z M291.425,64.599 c-0.117-0.173-0.25-0.316-0.394-0.433C291.178,64.28,291.308,64.426,291.425,64.599L291.425,64.599z M290.561,63.887 c0.164,0.067,0.318,0.163,0.466,0.276C290.882,64.045,290.725,63.954,290.561,63.887z M290.38,63.827 c0.002,0.001,0.005,0.003,0.007,0.004C290.384,63.831,290.382,63.829,290.38,63.827C290.38,63.827,290.38,63.827,290.38,63.827z M189.359,152.692c-0.116,0.068-0.231,0.14-0.347,0.208C189.128,152.832,189.243,152.76,189.359,152.692z M167.778,169.906 c0.822-0.87,1.657-1.722,2.503-2.557C169.434,168.183,168.6,169.036,167.778,169.906z M171.345,166.334 c0.499-0.479,0.995-0.963,1.502-1.429C172.34,165.371,171.844,165.855,171.345,166.334z M174.268,163.643 c0.403-0.356,0.801-0.721,1.208-1.069C175.069,162.922,174.671,163.286,174.268,163.643z M177.166,161.176 c0.331-0.271,0.657-0.55,0.991-0.815C177.823,160.627,177.497,160.906,177.166,161.176z M180.085,158.879 c0.269-0.203,0.535-0.415,0.805-0.615C180.62,158.465,180.354,158.676,180.085,158.879z M183.03,156.74 c0.214-0.149,0.426-0.306,0.641-0.453C183.456,156.434,183.245,156.59,183.03,156.74z M186.008,154.747 c0.163-0.104,0.324-0.214,0.487-0.318C186.332,154.533,186.171,154.642,186.008,154.747z M340.604,174.274 c1.121,1.178,2.226,2.375,3.313,3.593c0.967,1.083,1.911,2.183,2.844,3.289c-0.933-1.106-1.876-2.206-2.844-3.289 C342.83,176.649,341.725,175.451,340.604,174.274z M337.194,170.805c0.606,0.597,1.196,1.215,1.793,1.823 C338.39,172.02,337.8,171.402,337.194,170.805z M369.118,216.916c-0.129-0.293-0.26-0.584-0.391-0.876 C368.857,216.332,368.989,216.623,369.118,216.916z M366.761,211.833c-0.155-0.318-0.308-0.638-0.465-0.956 C366.453,211.195,366.606,211.514,366.761,211.833z M365.157,208.631c-0.222-0.429-0.451-0.856-0.678-1.284 C364.706,207.775,364.935,208.201,365.157,208.631z M362.663,204.029c-0.306-0.542-0.613-1.083-0.926-1.621 C362.05,202.946,362.358,203.487,362.663,204.029z M360.677,200.607c-0.589-0.981-1.188-1.958-1.801-2.928 C359.49,198.649,360.089,199.626,360.677,200.607z M357.965,196.269c-0.481-0.741-0.968-1.48-1.463-2.214 C356.997,194.789,357.484,195.527,357.965,196.269z M355.652,192.799c-0.727-1.055-1.469-2.103-2.226-3.142 C354.183,190.696,354.926,191.743,355.652,192.799z M352.667,188.628c-0.689-0.93-1.388-1.854-2.1-2.77 C351.279,186.775,351.979,187.699,352.667,188.628z M350.07,185.213c-0.863-1.098-1.746-2.184-2.642-3.261 C348.324,183.03,349.208,184.115,350.07,185.213z M314.903,152.716c0.034,0.023,0.068,0.047,0.102,0.07 C314.97,152.763,314.937,152.739,314.903,152.716z M318.821,155.399c0.088,0.063,0.174,0.129,0.263,0.192 C318.996,155.528,318.91,155.461,318.821,155.399z M322.662,158.216c0.161,0.122,0.318,0.252,0.479,0.375 C322.98,158.468,322.823,158.338,322.662,158.216z M326.421,161.166c0.265,0.215,0.523,0.441,0.786,0.658 C326.944,161.607,326.686,161.381,326.421,161.166z M330.099,164.248c0.368,0.318,0.725,0.652,1.09,0.974 C330.824,164.9,330.466,164.567,330.099,164.248z M333.691,167.462c0.475,0.439,0.937,0.896,1.407,1.342 C334.628,168.358,334.166,167.901,333.691,167.462z M281.121,136.365C281.121,136.365,281.121,136.365,281.121,136.365 C281.121,136.365,281.121,136.365,281.121,136.365L281.121,136.365z M278.792,132.731c0.051,0.063,0.101,0.127,0.151,0.191 C278.893,132.858,278.843,132.794,278.792,132.731z M297.392,58.96c0.51-0.78,0.994-1.578,1.447-2.396 C298.386,57.381,297.903,58.18,297.392,58.96z M295.798,61.211c0.05-0.066,0.094-0.136,0.144-0.203 C295.893,61.075,295.849,61.145,295.798,61.211z M189.352,38.241c0.034-0.129,0.069-0.259,0.105-0.388 C189.421,37.983,189.386,38.112,189.352,38.241z M189.043,39.555c0.025-0.121,0.054-0.243,0.081-0.365 C189.098,39.312,189.068,39.434,189.043,39.555z M189.859,36.523c-0.035,0.106-0.067,0.211-0.1,0.316 C189.793,36.734,189.824,36.629,189.859,36.523z M75.612,269.335c0.08,0.083,0.158,0.168,0.24,0.248l0.015-0.126l0,0l-0.015,0.126 C75.77,269.503,75.692,269.419,75.612,269.335L75.612,269.335z M92.721,242.671l3.223,0.287 C94.849,242.935,93.768,242.86,92.721,242.671z M75.476,270.628c-0.363-0.323-0.698-0.674-1.012-1.044 C74.78,269.952,75.114,270.305,75.476,270.628z M76.241,274.632c0.004,0.052,0.007,0.103,0.011,0.155 c-0.011,0.008-0.022,0.016-0.033,0.023L76.241,274.632z M64.891,264.497c-0.017-0.044-0.01-0.111-0.006-0.174 c0.06,0.135,0.135,0.258,0.223,0.371C65.001,264.63,64.918,264.564,64.891,264.497z M68.134,264.447 c0.403-0.299,0.79-0.619,1.156-0.962c-0.107,0.117-0.201,0.245-0.317,0.353C68.729,264.063,68.443,264.27,68.134,264.447z M72.99,267.363c-0.012-0.023-0.025-0.044-0.036-0.067C72.965,267.319,72.978,267.341,72.99,267.363z M73.913,268.854 c-0.094-0.131-0.196-0.254-0.284-0.389C73.718,268.599,73.818,268.724,73.913,268.854z" fill="inherit"/></g><g id="change2_1"><path d="M207.149,92.365c-1.887,1.459-4.326,2.185-6.703,1.995c-3.762-0.3-7.127-2.867-8.93-6.183 c-1.803-3.316-2.174-7.274-1.62-11.007c0.363-2.447,1.209-4.99,3.153-6.52c1.944-1.53,5.213-1.529,6.582,0.532L207.149,92.365z M280.555,84.407c3.315,1.742,7.661,0.29,10.061-2.586c2.399-2.876,3.155-6.808,3.098-10.552c-0.028-1.813-0.245-3.688-1.166-5.251 s-2.692-2.738-4.488-2.486c-1.385,0.194-2.521,1.158-3.572,2.082L280.555,84.407z M222.183,119.97 c2.15,3.78,2.984,9.484,2.475,14.009c13.951-5.325,29.36-4.753,43.983-4.552c-0.961-3.758-0.791-8.233,0.257-12.364 c-10.699-2.558-22.089-1.298-32.948,0.465C231.8,118.203,227.621,118.664,222.183,119.97z M89.668,241.683 c-4.06-2.071-9.366-1.37-12.749,1.684c-1.582,1.428-2.777,3.312-4.611,4.397c-1.089,0.644-2.382,0.993-3.263,1.9 c-0.573,0.59-0.914,1.362-1.226,2.122c-1.325,3.229-2.345,6.584-3.039,10.005c-0.252,1.242-0.254,2.893,0.924,3.359 c0.789,0.312,1.664-0.137,2.349-0.637c1.797-1.311,3.254-3.085,4.191-5.104c-0.29,1.943-0.37,3.96,0.197,5.84 c0.567,1.88,1.864,3.615,3.692,4.333c0.052,1.831-0.056,3.666,0.148,5.623c4.418-3.572,10.018-5.658,15.696-5.848 c5.679-0.189,11.404,1.519,16.254,5.128c-0.5-2.736-0.549-5.555-0.146-8.307c0.251-1.712,0.675-3.406,0.711-5.135 c0.03-1.445-0.213-2.88-0.488-4.299c-0.742-3.835-1.722-7.623-2.931-11.337c-0.3-0.922-0.775-1.984-1.855-2.265 C98.922,242.515,93.804,243.792,89.668,241.683z" fill="#de8d72"/></g><g id="change1_1"><path d="M71.726,280.291c5.028-6.795,13.47-10.923,21.921-10.719s16.684,4.735,21.379,11.765l8.756-20.908 l8.404-20.931c0,0,4.538-14.733,4.914-15.028c6.705-18.337,15.507-36.146,28.219-50.965s29.466-25.756,48.557-29.953 c0.633-3.226,1.89-6.328,3.801-9.122c18.872-5.205,38.777-6.64,57.964-4.155c2.128,1.776,3.926,3.947,5.768,6.932 c23.542,8.016,44.979,22.131,61.644,40.591s28.522,41.224,34.278,65.62c0.218,0.873,0.436,1.747,0.655,2.62l-201.341,90.748 c0,0-10.42-34.22-10.887-33.889c-8.597,12.708-18.036,24.845-28.396,36.34c-7.616,8.117-15.483,15.999-23.466,23.658 c-2.684,2.002-5.042,4.405-7.623,6.538c-2.581,2.133-5.467,4.033-8.618,4.628c-7.172,1.705-14.977-0.521-20.75-5.105 s-9.61-11.322-11.507-18.446c-1.897-7.124-1.958-14.634-1.443-22.273c1.273-14.706,3.868-29.261,6.46-43.792 C70.705,282.818,71.05,281.204,71.726,280.291z" fill="#f57923"/></g><g id="change3_1"><path d="M307.434,35.17h83.834v184.245h-21.077c-6.236-14.957-15.096-29.03-26.273-41.548 c-17.361-19.445-39.069-33.784-62.796-41.502c-1.239-2.53-3.027-4.767-5.242-6.523c-0.07-0.056-0.154-0.092-0.243-0.104 c-2.061-0.278-4.135-0.499-6.215-0.681c-0.628-3.791-0.821-7.649-0.576-11.486c0.646,0.167,1.29,0.346,1.928,0.547 c0.264,0.081,0.535-0.058,0.623-0.314c3.661-10.63,6.835-21.535,9.482-32.505c1.025,0.226,2.024,0.352,2.97,0.352 c2.248,0,4.219-0.628,5.645-1.841c0.768-0.654,1.431-1.497,2.148-2.731c2.545-4.381,3.211-9.209,1.828-13.246 c-0.281-0.823-0.737-1.7-1.338-2.467c2.647-2.602,4.909-5.555,6.708-8.8c1.854-3.345,3.207-6.966,4.516-10.469L307.434,35.17z M290.38,63.827c0.38,0.207,0.725,0.474,1.046,0.772c-0.235-0.348-0.534-0.577-0.864-0.713 C290.502,63.862,290.44,63.848,290.38,63.827z M139.673,216.349c7.348-18.852,16.803-34.477,28.104-46.443 c13.019-13.785,29.18-23.179,45.619-26.573c-0.03-0.088-0.042-0.182-0.02-0.275c0.703-2.926,1.777-5.621,3.379-8.48 c0.063-0.114,0.169-0.199,0.294-0.235c2.332-0.688,4.682-1.313,7.047-1.88c-0.035-3.897-0.737-7.719-2.087-11.373 c-0.121,0.045-0.245,0.082-0.365,0.128c-0.058,0.022-0.119,0.033-0.178,0.033c-0.167,0-0.33-0.085-0.423-0.234 c-5.642-8.964-10.471-18.4-14.486-28.236c-0.253,0.166-0.513,0.321-0.781,0.462c-0.029,0.13-0.107,0.249-0.231,0.323 c-1.341,0.792-2.907,1.186-4.51,1.187c-1.74,0-3.522-0.464-5.108-1.387c-2.692-1.567-4.801-4.404-5.786-7.785 c-0.827-2.84-0.921-6.102-0.281-9.696c0.331-1.857,0.937-4.178,2.702-5.646c0.355-0.295,0.754-0.53,1.179-0.716 c-0.01-0.03-0.019-0.06-0.03-0.09c-0.02,0.003-0.041,0.004-0.061,0.007c-0.179-0.572-0.338-1.149-0.507-1.724 c-1.647-5-2.945-10.136-3.819-15.318c-0.585-3.465-1.104-7.551-0.507-11.582c0.267-1.799,0.77-3.667,1.519-5.645H87.605v184.245 h50.905C138.893,218.389,139.277,217.364,139.673,216.349z M418.199,400.627v-64.321c0-66.895-54.229-121.124-121.124-121.124h0 c-66.895,0-121.124,54.229-121.124,121.124v64.321H418.199z" fill="#fff"/></g><g id="change4_1"><path d="M120.958,266.031c-1.205,2.825-2.43,5.64-3.673,8.447h-7.829c-0.215-0.171-0.417-0.357-0.639-0.521 c0.02-0.111,0.009-0.228-0.051-0.334c-1.278-2.245-0.935-4.84-0.431-7.592H120.958z M75.868,269.458 c-0.086-0.04-0.172-0.078-0.256-0.122c0.08,0.083,0.158,0.168,0.24,0.248L75.868,269.458z M396.273,266.031 c1.944,2.735,3.782,5.551,5.499,8.447h42.918v-8.447H396.273z M75.711,270.737c-0.084-0.017-0.166-0.048-0.235-0.109 c-1.389-1.239-2.423-2.844-3.075-4.597H0v8.447h75.253L75.711,270.737z M307.248,35.67h83.52v183.245h-20.78 c0.14,0.332,0.27,0.667,0.407,1h20.874c0.276,0,0.5-0.224,0.5-0.5V35.17c0-0.276-0.224-0.5-0.5-0.5h-83.647L307.248,35.67z M87.605,219.915h50.715c0.124-0.335,0.254-0.666,0.379-1H88.105V35.67h102.051c0.119-0.33,0.245-0.663,0.378-1H87.605 c-0.276,0-0.5,0.224-0.5,0.5v184.245C87.105,219.691,87.329,219.915,87.605,219.915z M190.173,54.834 c0.818,4.941,1.981,9.824,3.477,14.603c2.108-0.37,4.366,0.224,6.149,1.691c4.327,17.603,11.672,34.461,21.588,49.409 c7.974-2.74,16.447-3.639,24.845-4.383c8.115-0.719,16.521-1.276,24.72,1.51c3.579-10.074,6.627-20.336,8.907-30.59 c1.628-7.185,3.257-14.37,4.746-21.46c0.57-0.653,1.165-1.325,1.956-1.678c0.701-0.314,1.493-0.347,2.261-0.33 c0.59,0.013,1.192,0.055,1.738,0.28c0.546,0.224,1.034,0.66,1.227,1.573c3.514-3.975,6.456-8.454,8.71-13.257 c1.284-2.736,2.343-5.572,3.401-8.403c5.393-14.438,10.786-28.876,15.791-43.343c-12.955,7.712-29.084,9.891-43.621,5.893 c-4.504-1.238-8.85-3.038-13.411-4.044c-7.066-1.559-14.404-1.165-21.616-0.57c-5.693,0.47-11.414,1.069-16.863,2.683 c-8.984,2.504-16.852,8.167-23.2,15c-5.482,5.901-10.068,13.005-11.333,21.13C188.375,45.02,189.333,49.759,190.173,54.834z M205.545,93.565c0.238-0.141,0.316-0.447,0.176-0.685c-0.141-0.237-0.447-0.314-0.685-0.176c-2.489,1.471-5.868,1.391-8.607-0.204 c-2.473-1.439-4.415-4.063-5.329-7.2c-0.784-2.691-0.87-5.8-0.256-9.241c0.301-1.69,0.841-3.792,2.357-5.054 c0.958-0.797,2.299-1.111,3.682-0.857c1.381,0.252,2.526,1.02,3.14,2.104c0.136,0.241,0.442,0.325,0.681,0.189 c0.241-0.136,0.325-0.441,0.189-0.681c-0.76-1.343-2.156-2.29-3.83-2.596c-1.676-0.305-3.314,0.085-4.501,1.072 c-1.765,1.469-2.371,3.789-2.702,5.646c-0.641,3.594-0.546,6.856,0.281,9.696c0.985,3.38,3.094,6.218,5.786,7.785 c1.586,0.923,3.369,1.387,5.108,1.387C202.638,94.751,204.204,94.357,205.545,93.565z M221.645,121.217 c4.866-1.859,10.13-2.598,15.22-3.312c10.771-1.512,22.98-3.225,33.909,0.212c0.264,0.081,0.535-0.058,0.623-0.314 c4.433-12.872,8.165-26.145,11.094-39.451c1.721-7.817,3.735-18.126,4.052-28.541c0.008-0.276-0.209-0.506-0.484-0.515 c-0.006,0-0.011,0-0.016,0c-0.27,0-0.491,0.214-0.5,0.485c-0.313,10.332-2.317,20.582-4.028,28.356 c-2.886,13.111-6.555,26.191-10.905,38.883c-11.025-3.312-23.16-1.61-33.883-0.105c-5.013,0.704-10.192,1.431-15.053,3.224 c-12.011-19.182-20.341-40.5-24.76-63.367c-0.053-0.271-0.318-0.451-0.585-0.396c-0.271,0.052-0.449,0.314-0.396,0.585 c4.469,23.127,12.917,44.679,25.112,64.055c0.094,0.149,0.256,0.234,0.423,0.234C221.526,121.25,221.587,121.239,221.645,121.217z M289.494,83.808c0.768-0.654,1.431-1.497,2.148-2.731c2.545-4.381,3.211-9.209,1.828-13.246c-0.692-2.024-2.394-4.423-4.907-4.522 c-1.629-0.075-3.019,0.838-4.072,1.631c-0.221,0.166-0.265,0.479-0.099,0.7c0.165,0.221,0.482,0.264,0.7,0.099 c0.92-0.693,2.125-1.484,3.432-1.431c2.008,0.079,3.41,2.122,4.001,3.848c1.288,3.762,0.651,8.289-1.748,12.419 c-0.658,1.133-1.254,1.895-1.932,2.472c-1.837,1.564-4.763,2.011-8.027,1.225c-0.272-0.064-0.538,0.102-0.604,0.369 c-0.064,0.269,0.101,0.539,0.369,0.604c1.131,0.272,2.228,0.406,3.266,0.406C286.097,85.649,288.068,85.02,289.494,83.808z M194.54,70.311c0.26-0.092,0.396-0.378,0.304-0.639c-2.01-5.656-3.535-11.525-4.534-17.442c-0.573-3.388-1.08-7.376-0.504-11.269 c0.418-2.821,1.442-5.833,3.13-9.206c6.211-12.415,17.735-22.277,30.826-26.381c7.65-2.398,15.869-2.967,23.632-3.343 c4.138-0.2,7.872-0.328,11.654,0.153c4.416,0.561,8.754,1.972,12.95,3.336c3.839,1.249,7.81,2.54,11.868,3.197 c10.541,1.707,22.33-0.709,35.058-7.178l-16.508,44.206c-1.295,3.468-2.635,7.055-4.453,10.334 c-1.814,3.274-4.104,6.252-6.802,8.851c-0.199,0.192-0.205,0.508-0.014,0.707c0.192,0.201,0.509,0.205,0.707,0.014 c2.771-2.668,5.12-5.725,6.983-9.086c1.854-3.345,3.207-6.966,4.516-10.469l16.961-45.419c0.072-0.194,0.018-0.413-0.138-0.55 c-0.156-0.138-0.38-0.164-0.563-0.068c-12.975,6.813-24.948,9.396-35.587,7.672c-3.983-0.645-7.916-1.924-11.72-3.161 c-4.239-1.379-8.624-2.805-13.133-3.377c-3.856-0.489-7.796-0.354-11.829-0.16c-7.827,0.38-16.118,0.954-23.882,3.388 c-13.345,4.184-25.091,14.236-31.422,26.888c-1.736,3.469-2.791,6.579-3.225,9.507c-0.597,4.03-0.079,8.116,0.507,11.582 c1.008,5.975,2.549,11.899,4.578,17.611c0.073,0.205,0.266,0.333,0.471,0.333C194.429,70.339,194.485,70.33,194.54,70.311z M225.104,132.781c0.002-4.262-0.77-8.44-2.292-12.419c-0.099-0.258-0.39-0.387-0.646-0.288c-0.258,0.099-0.387,0.388-0.288,0.646 c1.479,3.865,2.228,7.923,2.226,12.062c0,0.276,0.224,0.5,0.5,0.5l0,0C224.88,133.281,225.104,133.058,225.104,132.781z M269.075,130.052c0.271-0.047,0.454-0.307,0.406-0.579c-0.71-4.078-0.918-8.241-0.615-12.373c0.02-0.275-0.188-0.515-0.463-0.535 c-0.254-0.022-0.515,0.187-0.535,0.462c-0.308,4.214-0.097,8.459,0.629,12.618c0.042,0.243,0.253,0.414,0.491,0.414 C269.017,130.059,269.045,130.057,269.075,130.052z M213.946,143.668c23.593-3.979,45.601-5.706,67.302-5.272 c0.157-0.003,0.326-0.078,0.421-0.215c0.095-0.138,0.115-0.314,0.054-0.469c-1.223-3.085-3.243-5.807-5.844-7.87 c-0.07-0.056-0.154-0.092-0.243-0.104c-19.288-2.605-39.543-1.012-58.586,4.604c-0.125,0.037-0.231,0.121-0.294,0.235 c-1.602,2.859-2.676,5.554-3.379,8.48c-0.039,0.163,0.006,0.335,0.121,0.458c0.096,0.102,0.229,0.159,0.366,0.159 C213.891,143.675,213.918,143.672,213.946,143.668z M275.365,130.71c2.215,1.785,3.978,4.078,5.135,6.671 c-21.289-0.373-42.872,1.321-65.963,5.174c0.664-2.495,1.625-4.842,2.993-7.312C236.333,129.728,256.326,128.159,275.365,130.71z M97.52,318.864c12.396-25.593,25.213-52.058,34.945-79.316c0.922-2.583,1.818-5.177,2.714-7.77 c1.715-4.964,3.488-10.096,5.425-15.066c7.301-18.731,16.688-34.248,27.899-46.12c13.163-13.938,29.559-23.352,46.167-26.509 c0.271-0.052,0.45-0.313,0.398-0.584c-0.051-0.271-0.313-0.449-0.584-0.398c-16.813,3.196-33.4,12.716-46.707,26.805 c-11.301,11.966-20.757,27.591-28.104,46.443c-1.944,4.989-3.721,10.131-5.439,15.103c-0.895,2.591-1.79,5.181-2.71,7.761 c-9.714,27.207-22.52,53.647-34.904,79.217c-0.12,0.248-0.016,0.548,0.232,0.668c0.07,0.034,0.144,0.05,0.217,0.05 C97.255,319.146,97.433,319.043,97.52,318.864z M162.445,261.384c4.09-15.685,2.734-32.144,1.143-46.339 c-0.689-6.152-1.591-12.063-5-16.752c-0.163-0.223-0.475-0.272-0.698-0.11c-0.224,0.162-0.273,0.475-0.11,0.698 c3.265,4.491,4.14,10.262,4.814,16.275c1.582,14.106,2.93,30.456-1.117,45.976c-0.07,0.267,0.09,0.54,0.358,0.609 c0.042,0.012,0.084,0.017,0.126,0.017C162.183,261.758,162.387,261.608,162.445,261.384z M377.769,245.947 c0.271-0.055,0.446-0.318,0.392-0.589c-4.942-24.599-16.783-47.937-34.243-67.491c-17.459-19.555-39.312-33.953-63.197-41.639 c-0.262-0.083-0.545,0.06-0.629,0.323c-0.085,0.263,0.06,0.545,0.322,0.629c48.705,15.672,86.688,58.212,96.767,108.375 c0.048,0.237,0.257,0.401,0.489,0.401C377.703,245.957,377.736,245.954,377.769,245.947z M340.389,223.599 c0.269-0.063,0.435-0.332,0.371-0.602c-3.193-13.526-3.348-26.161-0.485-39.762c0.057-0.271-0.116-0.536-0.387-0.592 c-0.264-0.056-0.535,0.116-0.592,0.386c-2.894,13.75-2.737,26.524,0.491,40.199c0.054,0.229,0.259,0.385,0.486,0.385 C340.312,223.612,340.35,223.608,340.389,223.599z M418.699,400.627v-64.321c0-67.063-54.561-121.624-121.624-121.624 s-121.624,54.561-121.624,121.624v64.321c0,0.276,0.224,0.5,0.5,0.5h242.248C418.475,401.127,418.699,400.903,418.699,400.627z M176.451,336.306c0-66.513,54.111-120.624,120.624-120.624s120.624,54.111,120.624,120.624v63.821H176.451V336.306z M176.102,335.298c0.263-0.085,0.408-0.366,0.323-0.629c-6.421-20.006-12.068-40.529-16.786-60.999 c-0.062-0.269-0.332-0.437-0.6-0.375c-0.269,0.062-0.437,0.33-0.375,0.6c4.724,20.497,10.379,41.047,16.808,61.079 c0.068,0.213,0.265,0.348,0.476,0.348C175.999,335.321,176.051,335.313,176.102,335.298z M100.154,373.654 c3.677-1.523,6.771-4.083,9.88-6.793c21.644-18.871,40.716-40.539,56.687-64.402c0.154-0.229,0.092-0.54-0.137-0.694 c-0.229-0.151-0.541-0.091-0.694,0.138c-15.921,23.79-34.935,45.392-56.513,64.205c-3.043,2.653-6.068,5.157-9.605,6.623 c-9.879,4.092-20.982-1.112-26.842-8.37c-5.558-6.881-8.493-16.782-8.488-28.633c0.003-6.389,0.767-12.808,1.506-19.015 c0.439-3.688,0.893-7.503,1.167-11.181c0.54-5.13,5.373-8.776,8.961-11.073c9.746-6.236,18.728-8.873,26.715-7.832 c3.398,0.443,5.89,1.575,7.407,3.365c0.178,0.21,0.494,0.237,0.705,0.059s0.237-0.494,0.058-0.705 c-1.683-1.985-4.388-3.234-8.041-3.711c-8.223-1.068-17.434,1.616-27.383,7.982c-3.762,2.407-8.831,6.252-9.417,11.825 c-0.273,3.671-0.726,7.475-1.164,11.152c-0.742,6.236-1.51,12.685-1.513,19.133c-0.005,12.082,3.006,22.2,8.709,29.262 c4.605,5.702,12.34,10.179,20.305,10.179C95.03,375.168,97.629,374.7,100.154,373.654z M67.983,302.505l2.675-17.405 c0.226-1.467,0.459-2.984,1.093-4.32c0.917-1.931,2.634-3.378,4.027-4.423c6.184-4.637,13.729-6.87,20.704-6.142 c7.598,0.799,14.415,5.176,17.79,11.424c0.131,0.244,0.434,0.335,0.678,0.202c0.243-0.131,0.333-0.435,0.202-0.677 c-3.53-6.535-10.644-11.111-18.565-11.943c-7.217-0.764-15.024,1.55-21.408,6.335c-1.486,1.114-3.321,2.666-4.331,4.795 c-0.697,1.469-0.941,3.059-1.178,4.597l-2.675,17.405c-0.042,0.273,0.145,0.528,0.418,0.57c0.026,0.004,0.052,0.006,0.077,0.006 C67.732,302.929,67.945,302.752,67.983,302.505z M76.093,275.837l1.036-8.446c0.034-0.273-0.161-0.523-0.435-0.557 c-0.28-0.041-0.524,0.161-0.557,0.436l-1.036,8.446c-0.034,0.273,0.161,0.523,0.435,0.557c0.021,0.003,0.042,0.004,0.062,0.004 C75.847,276.276,76.062,276.091,76.093,275.837z M76.182,270.588c0.184-0.206,0.166-0.522-0.04-0.706 c-2.847-2.54-4.167-6.739-3.285-10.45c0.064-0.269-0.102-0.538-0.371-0.602c-0.267-0.066-0.538,0.102-0.602,0.371 c-0.964,4.058,0.479,8.649,3.592,11.427c0.096,0.085,0.214,0.127,0.333,0.127C75.946,270.755,76.083,270.698,76.182,270.588z M108.578,274.305c0.24-0.137,0.324-0.442,0.187-0.682c-1.396-2.452-0.859-5.32-0.291-8.356c0.272-1.453,0.554-2.956,0.609-4.422 c0.104-2.73-0.588-5.37-1.257-7.924l-2.187-8.343c-0.115-0.44-0.273-1.043-0.748-1.451c-0.488-0.42-1.127-0.477-1.593-0.518 l-13.305-1.185c-3.751-1.675-9.392-2.463-13.071,0.783c-0.79,0.697-1.436,1.538-2.06,2.352c-0.865,1.127-1.683,2.191-2.826,2.852 c-0.323,0.187-0.667,0.337-1.011,0.488c-0.554,0.244-1.127,0.497-1.637,0.891c-1.196,0.924-1.734,2.339-2.224,3.829 c-1.197,3.646-2.271,7.383-3.194,11.105c-0.071,0.285-0.178,0.718-0.009,1.142c0.144,0.363,0.459,0.647,0.935,0.845 c1.482,0.614,3.349,0.167,4.755-1.142c1.208-1.122,1.931-2.652,2.569-4.003c0.118-0.25,0.011-0.548-0.239-0.666 c-0.25-0.117-0.547-0.012-0.666,0.238c-0.629,1.331-1.279,2.707-2.346,3.698c-0.919,0.854-2.42,1.477-3.692,0.95 c-0.211-0.088-0.349-0.19-0.389-0.29c-0.05-0.126,0.008-0.36,0.051-0.532c0.917-3.698,1.984-7.411,3.174-11.033 c0.439-1.338,0.914-2.6,1.885-3.351c0.414-0.319,0.907-0.536,1.429-0.767c0.376-0.166,0.753-0.333,1.107-0.537 c1.316-0.759,2.233-1.954,3.12-3.109c0.595-0.775,1.21-1.577,1.928-2.21c3.347-2.956,8.596-2.162,12.075-0.588 c0.051,0.023,0.106,0.038,0.162,0.043l13.389,1.192c0.43,0.038,0.804,0.085,1.029,0.279c0.22,0.189,0.326,0.541,0.433,0.947 l2.187,8.343c0.651,2.482,1.324,5.05,1.226,7.632c-0.053,1.393-0.328,2.858-0.593,4.275c-0.577,3.08-1.173,6.266,0.404,9.035 c0.092,0.162,0.261,0.253,0.435,0.253C108.415,274.37,108.5,274.349,108.578,274.305z" fill="inherit"/></g></g></svg>