<?xml version="1.0" encoding="UTF-8"?><svg xmlns="http://www.w3.org/2000/svg" xmlns:xlink="http://www.w3.org/1999/xlink" height="553.4" preserveAspectRatio="xMidYMid meet" version="1.0" viewBox="-0.7 0.0 497.2 553.4" width="497.2" zoomAndPan="magnify"><g id="change1_1"><path d="M496.52,22.143v501.114c0,12.23-9.914,22.143-22.143,22.143H277.703c-0.417,0.079-0.831,0.133-1.234,0.14h1.049 c2.184,0,3.954,1.77,3.954,3.954s-1.77,3.954-3.954,3.954h-82.9h-24.254H39.304c-3.109,0-5.872-1.982-6.868-4.927L0.214,453.279 c-0.877-2.591,1.05-5.277,3.786-5.277h56.813c25.243-27.471,58.522-56.436,58.522-56.436l1.085-10.762l-0.976-0.976 c-1.161-1.161-1.161-3.044,0-4.206l1.315-1.315v-4.528c0-3.126,1.254-6.121,3.482-8.313l8.976-8.835 c2.591-2.55,6.584-2.786,9.466-0.736c0.998-8.345,2.111-15.991,3.288-21.268c3.296-14.773,17.395-22.538,30.804-25.247V155.659 h-54.662l-21.568,21.568h53.165v78.334h-17.874v22.199l-22.199-22.199H0v-78.334h99.912v-21.568H82.037V77.324h94.735V22.143 C176.772,9.914,186.686,0,198.916,0h275.461C486.606,0,496.52,9.914,496.52,22.143z" fill="#fbeeec"/></g><g id="change2_1"><path d="M230.974,512.269c0.1,0.344,0.168,0.596,0.168,0.659c0,0.036-0.066,0.071-0.16,0.104L230.974,512.269z M176.772,305.38c4.363-0.881,8.653-1.234,12.474-1.111c3.015,0.097,5.802,0.469,8.396,1.115V155.659h-20.87V305.38z M496.52,22.143 v501.114c0,12.23-9.914,22.143-22.143,22.143H277.703c5.346-1.011,11.503-7.852,11.504-19.238 c0.001-8.641-3.146-26.322-8.379-45.355H475.65V22.65H197.642v54.674h-20.87V22.143C176.772,9.914,186.686,0,198.916,0h275.461 C486.606,0,496.52,9.914,496.52,22.143z M358.936,512.883c0-12.31-9.979-22.29-22.29-22.29s-22.29,9.979-22.29,22.29 c0,12.31,9.979,22.29,22.29,22.29S358.936,525.193,358.936,512.883z M150.923,385.73c0.054-0.01,0.1-0.038,0.155-0.046l0.858-0.132 c0.837-0.128,1.586,0.233,2.048,0.824l4.908-4.908v-0.569c-0.608-0.433-1.189-0.897-1.748-1.389L150.923,385.73z M143.495,352.525 l1.415,1.337l4.8-4.8v-3.707l-6.753,6.753C143.135,352.248,143.326,352.365,143.495,352.525z M144.516,392.137l1.74-1.74 l-1.86,5.566l-2.306,2.306c-1.161,1.162-3.045,1.162-4.206,0l-17.465-17.465l-0.976-0.976c-1.161-1.161-1.161-3.044,0-4.206 l1.315-1.315l3.695-3.695l2.521,0.001c0.442,0,0.872-0.075,1.307-0.123l-2.705,2.705L144.516,392.137z M134.719,385.527 c0-1.399-1.134-2.534-2.534-2.534s-2.534,1.134-2.534,2.534c0,1.399,1.134,2.534,2.534,2.534S134.719,386.926,134.719,385.527z M92.877,489.86c-6.001,0-10.865,4.865-10.865,10.865s4.865,10.865,10.865,10.865s10.865-4.865,10.865-10.865 S98.877,489.86,92.877,489.86z" fill="#f26b6d"/></g><g id="change3_1"><path d="M392.478,234.979v48.018c-16.22,10.058-35.343,15.88-55.832,15.88s-39.611-5.822-55.832-15.88v-48.018 c0-17.227,12.655-31.839,29.707-34.297l10.035-1.447v-8.496c-7.681-5.178-12.733-13.956-12.733-23.916v-9.186 c0-15.918,12.905-28.823,28.823-28.823c15.918,0,28.823,12.905,28.823,28.823v9.186c0,9.96-5.052,18.738-12.733,23.916v8.496 l10.035,1.447C379.822,203.141,392.478,217.752,392.478,234.979z M137.884,398.27l-17.465-17.465l-1.085,10.762l18.779,10.755 l6.283-6.357l-2.306,2.306C140.929,399.431,139.046,399.431,137.884,398.27z M151.936,385.553l-0.858,0.132 c-0.054,0.008-0.101,0.036-0.155,0.046c-2.028,0.371-3.708,1.798-4.364,3.762l-0.302,0.905l-1.86,5.566l5.113-0.709 c0.807-0.112,1.534-0.457,2.155-0.932c0.767-0.587,1.365-1.387,1.646-2.353l1.059-3.641c0.21-0.723,0.025-1.427-0.386-1.951 C153.522,385.786,152.773,385.424,151.936,385.553z M143.495,352.525c-0.168-0.159-0.359-0.276-0.538-0.417 c-0.092-0.072-0.181-0.146-0.275-0.213c-2.883-2.05-6.876-1.814-9.466,0.736l-8.976,8.835c-2.227,2.193-3.482,5.188-3.482,8.313 v4.528l3.695-3.695l2.521,0.001c0.442,0,0.872-0.075,1.307-0.123c2.549-0.28,4.963-1.321,6.86-3.081l9.906-9.191 c1.222-1.134,1.231-3.065,0.019-4.21l-0.156-0.147L143.495,352.525z M205.717,343.123c-2.332,0.328-4.261,1.141-5.853,2.149 l-14.383-17.156c-12.161,8.171-28.524,10.583-35.772,11.275v5.963v3.707v14.069c0,6.533,2.885,12.379,7.434,16.379 c0.559,0.492,1.14,0.956,1.748,1.389v0.569v12.926h35.762v-13.495c4.838-3.449,8.201-8.815,8.987-14.996 c3.522-0.785,9.203-3.118,11.822-10.106C217.584,350.137,214.476,341.89,205.717,343.123z M135.834,277.76l-22.199-22.199H0v-78.334 h99.912v0.631l0.631-0.631h53.165v78.334h-17.874V277.76z M16.58,199.537h121.133v-2.621H16.58V199.537z M16.58,218.745h121.133 v-2.621H16.58V218.745z M137.713,237.952v-2.621H16.58v2.621H137.713z" fill="#f3bbc1"/></g><g id="change4_1"><path d="M348.119,354.357c0,6.336-5.136,11.472-11.472,11.472c-6.336,0-11.472-5.136-11.472-11.472 c0-6.336,5.136-11.472,11.472-11.472C342.982,342.885,348.119,348.021,348.119,354.357z M284.218,342.885 c-6.336,0-11.472,5.136-11.472,11.472c0,6.336,5.136,11.472,11.472,11.472c6.336,0,11.472-5.136,11.472-11.472 C295.691,348.021,290.554,342.885,284.218,342.885z M389.074,342.885c-6.336,0-11.472,5.136-11.472,11.472 c0,6.336,5.136,11.472,11.472,11.472c6.336,0,11.472-5.136,11.472-11.472C400.547,348.021,395.41,342.885,389.074,342.885z M280.829,480.808c5.232,19.032,8.38,36.714,8.379,45.355c-0.001,11.386-6.158,18.227-11.504,19.238 c-0.417,0.079-0.831,0.133-1.234,0.14h-84.526l-10.744-31.756l-20.589-60.855c-0.996-2.945-3.759-4.927-6.868-4.927h-31.58H60.812 c25.243-27.471,58.522-56.436,58.522-56.436l18.779,10.755l6.283-6.357l5.113-0.709c0.807-0.112,1.534-0.457,2.155-0.932 c2.417,0.068,4.842,0.098,7.227,0.072h35.762c0,0,23.685,0.692,43.294,11.424c6.016,3.293,11.653,7.519,16.099,12.975 C264.835,432.033,274.405,457.44,280.829,480.808z M231.142,512.928c0-0.063-0.068-0.315-0.168-0.659l0.008,0.763 C231.076,512.998,231.142,512.964,231.142,512.928z M99.912,155.659H82.037V77.324h94.735h20.87h38.103v78.334h-38.103h-20.87 h-54.662l-21.568,21.568l-0.631,0.631v-0.631V155.659z M98.033,99.635h121.133v-2.621H98.033V99.635z M98.033,118.843h121.133 v-2.621H98.033V118.843z M219.167,138.049v-2.621H98.033v2.621H219.167z" fill="#7b95f9"/></g><g id="change5_1"><path d="M442.763,192.761c0,38.117-20.108,71.525-50.285,90.237v-48.018c0-17.227-12.655-31.839-29.707-34.297 l-10.035-1.447v-8.496c7.681-5.178,12.733-13.956,12.733-23.916v-9.186c0-15.918-12.904-28.823-28.823-28.823 c-15.918,0-28.823,12.905-28.823,28.823v9.186c0,9.96,5.053,18.738,12.733,23.916v8.496l-10.035,1.447 c-17.051,2.459-29.707,17.07-29.707,34.297v48.018c-30.177-18.711-50.285-52.119-50.285-90.237 c0-58.606,47.51-106.116,106.116-106.116S442.763,134.155,442.763,192.761z M221.629,329.121 c-5.817-13.496-13.192-21.05-23.986-23.736c-2.594-0.646-5.38-1.018-8.396-1.115c-3.821-0.123-8.111,0.229-12.474,1.111 c-13.409,2.709-27.507,10.473-30.804,25.247c-1.177,5.277-2.29,12.922-3.288,21.268c0.094,0.067,0.184,0.141,0.275,0.213 l6.753-6.753v-5.963c7.248-0.692,23.611-3.104,35.772-11.275l14.383,17.156c1.592-1.008,3.522-1.821,5.853-2.149 c8.759-1.234,11.867,7.014,9.745,12.674c-2.619,6.988-8.3,9.321-11.822,10.106c-0.785,6.181-4.148,11.547-8.987,14.996v13.495 c0,0,23.685,0.692,43.294,11.424c2.226-4.856,2.891-10.488,1.4-16.14C233.412,367.187,225.354,337.763,221.629,329.121z M154.369,388.328l-1.059,3.641c-0.281,0.966-0.879,1.766-1.646,2.353c2.417,0.068,4.842,0.098,7.227,0.072v-12.926l-4.908,4.908 C154.394,386.901,154.579,387.605,154.369,388.328z M16.58,199.537h121.133v-2.621H16.58V199.537z M16.58,218.745h121.133v-2.621 H16.58V218.745z M16.58,237.952h121.133v-2.621H16.58V237.952z M219.167,97.014H98.033v2.621h121.133V97.014z M219.167,116.221 H98.033v2.621h121.133V116.221z M219.167,135.427H98.033v2.621h121.133V135.427z" fill="#4724e3"/></g></svg>